<svg xmlns="http://www.w3.org/2000/svg" viewBox="0 0 624.6 124.25"><defs><style>.cls-1{fill:#f60;}.cls-2{fill:#fff;}.cls-3{fill:#02c9c9;}</style></defs><g id="Layer_2" data-name="Layer 2"><g id="Layer_1-2" data-name="Layer 1"><circle class="cls-1" cx="62.12" cy="62.12" r="62.12"/><path class="cls-2" d="M54.9,49.42a.25.25,0,0,0-.48-.09L43.7,76.71q-2,4.83-5.27,6.61a8.12,8.12,0,0,1-7.21.21,9.52,9.52,0,0,1-5-4.23,5.92,5.92,0,0,1-.64-5.19,2.33,2.33,0,0,1,.87-1.17,1.06,1.06,0,0,1,1-.1,6.38,6.38,0,0,1,1,.7,5.76,5.76,0,0,0,1.42.94A3.68,3.68,0,0,0,33,74.29a4.67,4.67,0,0,0,2.34-2.57,5,5,0,0,0,0-4A5.13,5.13,0,0,0,32.42,65a6,6,0,0,0-5.19.33,8.92,8.92,0,0,0-4,4.85,11.22,11.22,0,0,0,.3,9.36,13.81,13.81,0,0,0,7.74,6.89,17.12,17.12,0,0,0,8,1.32,12.38,12.38,0,0,0,10.88-8L54.16,69a11.42,11.42,0,0,0,.74-4Z"/><path class="cls-2" d="M69.35,49.42a.24.24,0,0,1,.47-.09L80.55,76.71c1.3,3.22,3,5.42,5.27,6.61a8.1,8.1,0,0,0,7.2.21,9.55,9.55,0,0,0,5-4.23,5.88,5.88,0,0,0,.63-5.19,2.22,2.22,0,0,0-.87-1.17,1,1,0,0,0-1-.1,5.57,5.57,0,0,0-1,.7,5.78,5.78,0,0,1-1.43.94,3.66,3.66,0,0,1-3.07-.19,4.6,4.6,0,0,1-2.34-2.57,5,5,0,0,1,0-4A5.12,5.12,0,0,1,91.82,65,6,6,0,0,1,97,65.3a8.93,8.93,0,0,1,4,4.85,11.22,11.22,0,0,1-.31,9.36A13.75,13.75,0,0,1,93,86.4a17.14,17.14,0,0,1-8,1.32,12.65,12.65,0,0,1-6.69-2.43,12.82,12.82,0,0,1-4.2-5.56L70.08,69a11.64,11.64,0,0,1-.73-4Z"/><path class="cls-2" d="M98.07,45.29a11.32,11.32,0,0,0-2.18-4.5c-2.25-2.55-4.64-4.21-7.81-4.32H36.17c-3.17.11-5.56,1.77-7.81,4.32a11.32,11.32,0,0,0-2.18,4.5,9,9,0,0,0,.39,6.19l0,.09c.08.14.15.28.23.41a5.79,5.79,0,0,0,3.8,2.88,5.11,5.11,0,0,0,4-.52,5,5,0,0,0,2.31-3.25,4.62,4.62,0,0,0-.4-3.46,3.65,3.65,0,0,0-2.39-2,6.12,6.12,0,0,0-1.7-.07,6.23,6.23,0,0,1-1.24,0,1.08,1.08,0,0,1-.77-.67,2.3,2.3,0,0,1,0-1.46c0-.12.06-.24.1-.36A5.05,5.05,0,0,1,32,40.93a7.41,7.41,0,0,1,4.36-2.06l.55-.07a35.45,35.45,0,0,1,4.07-.11c.45,0,3.17,0,6.3.1,2.89.07,6.15.16,8.28.28,2.6.08,3.1,1,3.1,2.49h0V82.79h0a2.16,2.16,0,0,1-.7,1.77,3.71,3.71,0,0,1-2.32.57h-.87a2.54,2.54,0,0,0-2.48,2.11.36.36,0,0,0,.35.41H71.65a.35.35,0,0,0,.34-.41,2.51,2.51,0,0,0-2.48-2.11h-.87a3.69,3.69,0,0,1-2.31-.57,2.13,2.13,0,0,1-.7-1.77h0V41.57h0c0-1.54.5-2.41,3.1-2.49,2.13-.12,5.38-.21,8.28-.28,3.13-.07,5.85-.1,6.3-.1a35.45,35.45,0,0,1,4.07.11l.55.07a7.41,7.41,0,0,1,4.36,2.06,4.94,4.94,0,0,1,1.43,2.17c0,.12.08.24.11.36a2.3,2.3,0,0,1,0,1.46,1.08,1.08,0,0,1-.77.67,6.23,6.23,0,0,1-1.24,0,6.19,6.19,0,0,0-1.71.07,3.69,3.69,0,0,0-2.39,2,4.67,4.67,0,0,0-.39,3.46,5,5,0,0,0,2.31,3.25,5.11,5.11,0,0,0,4,.52A5.79,5.79,0,0,0,97.41,52c.08-.13.15-.27.22-.41l.05-.09A9,9,0,0,0,98.07,45.29Z"/><path class="cls-3" d="M160.85,80.19a10.29,10.29,0,0,0,5.12-1.1,7,7,0,0,0,2.9-3.4,18.81,18.81,0,0,0,1.3-5.69q.3-3.41.3-8V34.45H181V62a89.74,89.74,0,0,1-.65,11.26A22.7,22.7,0,0,1,177.61,82a14.15,14.15,0,0,1-6.07,5.57q-4,2-10.69,2a20.19,20.19,0,0,1-11.76-3.37l.44-1.59a6.63,6.63,0,0,1,7.7-4.69A18.15,18.15,0,0,0,160.85,80.19Z"/><path class="cls-3" d="M224.17,43.69H213.44V82.07a6.6,6.6,0,0,1-6.6,6.6H203v-45H185.65V41.05a6.6,6.6,0,0,1,6.6-6.6h38.53v2.64A6.61,6.61,0,0,1,224.17,43.69Z"/><path class="cls-3" d="M235.76,41.05a6.6,6.6,0,0,1,6.6-6.6h17.38A15.44,15.44,0,0,1,266.65,36a18,18,0,0,1,5.46,4.12A19.71,19.71,0,0,1,275.7,46a17.55,17.55,0,0,1,1.3,6.53,18,18,0,0,1-2.64,9.58,15,15,0,0,1-7.14,6.22l12.37,20.39h-8.12a6.61,6.61,0,0,1-5.64-3.16l-9.14-15H246.3V82.07a6.59,6.59,0,0,1-6.6,6.6h-3.94Zm23.75,20.2a5.54,5.54,0,0,0,2.71-.68,6.91,6.91,0,0,0,2.17-1.87,9.24,9.24,0,0,0,1.46-2.79,11,11,0,0,0,.53-3.43,9.75,9.75,0,0,0-.61-3.52,9.3,9.3,0,0,0-1.64-2.79,7.56,7.56,0,0,0-2.37-1.83,6.17,6.17,0,0,0-2.71-.65H246.3V61.25Z"/><path class="cls-3" d="M356.55,34.45V88.67h-3.86a6.61,6.61,0,0,1-6.61-6.6V65.53H321.5V82.07a6.61,6.61,0,0,1-6.6,6.6H311V34.45h3.94a6.61,6.61,0,0,1,6.6,6.6V56.37h24.58V41.05a6.61,6.61,0,0,1,6.61-6.6Z"/><path class="cls-3" d="M405.86,68.48a21.72,21.72,0,0,1-1.45,7.87,20.4,20.4,0,0,1-4.13,6.6,19.33,19.33,0,0,1-6.56,4.55,23.81,23.81,0,0,1-17.57,0,19.67,19.67,0,0,1-10.76-11.15,21.51,21.51,0,0,1-1.45-7.87,21.77,21.77,0,0,1,1.45-7.94,19.92,19.92,0,0,1,4.16-6.6,19.67,19.67,0,0,1,6.6-4.54,22,22,0,0,1,8.78-1.68,21.71,21.71,0,0,1,8.75,1.68,19.7,19.7,0,0,1,6.56,4.54,20.11,20.11,0,0,1,4.17,6.6A21.94,21.94,0,0,1,405.86,68.48Zm-10.46-.07a14.21,14.21,0,0,0-.8-4.82,11.94,11.94,0,0,0-2.22-3.81,9.81,9.81,0,0,0-3.32-2.48,9.68,9.68,0,0,0-4.12-.88,9.42,9.42,0,0,0-4.13.91,10.48,10.48,0,0,0-3.32,2.52,11.79,11.79,0,0,0-2.21,3.82,15,15,0,0,0,0,9.66,11.81,11.81,0,0,0,2.21,3.78,9.81,9.81,0,0,0,3.32,2.48,10.11,10.11,0,0,0,8.25,0,9.81,9.81,0,0,0,3.32-2.48,11.94,11.94,0,0,0,2.22-3.81A14.41,14.41,0,0,0,395.4,68.41Z"/><path class="cls-3" d="M436.24,84.72a13.44,13.44,0,0,1-4.65,2.71,17.26,17.26,0,0,1-5.5.87,13.85,13.85,0,0,1-5.46-1.07,13,13,0,0,1-4.43-3,14,14,0,0,1-2.94-4.66,15.84,15.84,0,0,1-1.07-5.91V33.33h3.63a6.59,6.59,0,0,1,6.6,6.6V74.41A4.88,4.88,0,0,0,423.87,78a4.76,4.76,0,0,0,3.43,1.41,5.94,5.94,0,0,1,7.09,2.37Z"/><path class="cls-3" d="M441.15,39.94a5.12,5.12,0,1,1,5.12,5.12A5.11,5.11,0,0,1,441.15,39.94Zm0,8.46h10.24V81.81a6.6,6.6,0,0,1-6.61,6.6h-3.63Z"/><path class="cls-3" d="M500,32.67V88.6h-3.68a6.59,6.59,0,0,1-6.42-5.13,14.32,14.32,0,0,1-4.6,3.76,17,17,0,0,1-7.9,2,18.17,18.17,0,0,1-7.64-1.61,17.81,17.81,0,0,1-6-4.43,20.59,20.59,0,0,1-3.93-6.6,23.08,23.08,0,0,1-1.41-8.13,23.88,23.88,0,0,1,1.33-8.09,20.92,20.92,0,0,1,3.71-6.57A16.81,16.81,0,0,1,469,49.32a16,16,0,0,1,7.17-1.6,15.23,15.23,0,0,1,8,2.13,15.58,15.58,0,0,1,5.54,5.58V39.27a6.59,6.59,0,0,1,6.6-6.6ZM489.72,73.75V64.21A11.16,11.16,0,0,0,488,61.12a12.71,12.71,0,0,0-2.52-2.45,13.53,13.53,0,0,0-3-1.64,8.46,8.46,0,0,0-3.1-.61,9.18,9.18,0,0,0-4.23,1,10.28,10.28,0,0,0-3.33,2.71,13.08,13.08,0,0,0-2.13,3.93,14,14,0,0,0-.77,4.59,12.46,12.46,0,0,0,.85,4.66A12.14,12.14,0,0,0,472.09,77a10.31,10.31,0,0,0,3.47,2.52,10.73,10.73,0,0,0,4.47.91,9.68,9.68,0,0,0,3-.49,10.38,10.38,0,0,0,2.82-1.42,12.07,12.07,0,0,0,2.33-2.13,9,9,0,0,0,1.57-2.68Z"/><path class="cls-3" d="M543.87,64.21V88.6h-2.2a6.6,6.6,0,0,1-6.59-6.5,17.74,17.74,0,0,1-6.41,5.24,18.69,18.69,0,0,1-8.17,1.84,15.13,15.13,0,0,1-5.43-1,13.08,13.08,0,0,1-4.35-2.67,12.37,12.37,0,0,1-2.86-4,12.08,12.08,0,0,1-1-5,11.1,11.1,0,0,1,1.26-5.23,12,12,0,0,1,3.51-4.08A17.43,17.43,0,0,1,517,64.55a23.74,23.74,0,0,1,6.88-.95,30.18,30.18,0,0,1,5.23.45,21.57,21.57,0,0,1,4.54,1.3V63.06A8,8,0,0,0,531.38,57q-2.25-2.13-6.68-2.13A17.73,17.73,0,0,0,518.44,56l-.72.28a6.62,6.62,0,0,1-8.56-3.16l-.12-.25a29.54,29.54,0,0,1,16.65-5.11q8.63,0,13.4,4.23T543.87,64.21Zm-10.24,6.64a25,25,0,0,0-4-1.11,21.42,21.42,0,0,0-4.12-.42,11,11,0,0,0-6.49,1.79,5.39,5.39,0,0,0-2.52,4.55,5.46,5.46,0,0,0,2,4.31,7.18,7.18,0,0,0,4.89,1.72,13.31,13.31,0,0,0,4.92-.91A9,9,0,0,0,532,78.34a3.69,3.69,0,0,0,1.68-2.91Z"/><path class="cls-3" d="M587.8,48.4,573.33,91c-1.65,5.3-2.56,9.42-5,12.32s-4.29,3.87-8.42,3.87a22.74,22.74,0,0,1-9.85-2.37l.58-2.15a5.79,5.79,0,0,1,7.06-4.11q5.34,0,5.35-7.18l-.11-3-15.81-40H553a6.6,6.6,0,0,1,6.24,4.44l9.3,26.72,8.19-26.5a6.59,6.59,0,0,1,6.3-4.66Z"/><path class="cls-3" d="M624.6,76.51a11.15,11.15,0,0,1-4.35,9.28q-4.35,3.39-11.83,3.4a30.9,30.9,0,0,1-9.85-1.61A23.94,23.94,0,0,1,590.32,83l.45-.77a6.7,6.7,0,0,1,8.68-2.5c.61.29,1.22.56,1.83.79a19.12,19.12,0,0,0,6.91,1.33A8.78,8.78,0,0,0,613,80.71a3.69,3.69,0,0,0,1.75-3.29,3.26,3.26,0,0,0-2.06-3.12A45.5,45.5,0,0,0,606,72c-2.6-.71-4.81-1.39-6.64-2.06a16.89,16.89,0,0,1-4.43-2.25,7.76,7.76,0,0,1-2.45-2.9,9.43,9.43,0,0,1-.76-3.93,12.44,12.44,0,0,1,1.18-5.5,12,12,0,0,1,3.32-4.16,15.36,15.36,0,0,1,5-2.64,20.33,20.33,0,0,1,6.22-.91,26.65,26.65,0,0,1,8.44,1.3,20.4,20.4,0,0,1,7.21,4.2l-.65,1a6.49,6.49,0,0,1-8.07,2.41c-.44-.2-.88-.39-1.32-.55a16,16,0,0,0-5.69-1.07A8.16,8.16,0,0,0,603,56a3.72,3.72,0,0,0-1.76,3.43,3.32,3.32,0,0,0,.42,1.76A3.65,3.65,0,0,0,603,62.38a12.57,12.57,0,0,0,2.41,1c1,.33,2.23.66,3.7,1a69.2,69.2,0,0,1,7.06,2.14A19.06,19.06,0,0,1,621,69a8.64,8.64,0,0,1,2.75,3.17A9.65,9.65,0,0,1,624.6,76.51Z"/></g></g></svg>