<svg xmlns="http://www.w3.org/2000/svg" viewBox="0 0 187.06 164.45"><defs><style>.cls-1{fill:#f85a22;}.cls-2{fill:#4e6167;}.cls-3{fill:#ff8300;}.cls-4{fill:#475b62;}.cls-5{fill:#5b6e77;}.cls-6{fill:#6a7d87;}.cls-7{fill:#3f4d54;}.cls-8{fill:#9aa5a9;}.cls-9{fill:#fefefd;}.cls-10{fill:#3b4a51;}.cls-11{fill:#465a61;}</style></defs><g id="Layer_2" data-name="Layer 2"><g id="Layer_1-2" data-name="Layer 1"><path class="cls-1" d="M187.06,30.43c-3.27,7.78-4.94,16-7.3,24.11-4.78,16.36-9.35,32.78-14,49.17-1.43,5-3.15,6.25-8.35,6.26q-22.62,0-45.23,0c-1.08,0-2.16-.19-3.24-.29V22.12a10,10,0,0,1,1.77-.32q34.66,0,69.31,0a8.58,8.58,0,0,1,7.07,3.56Z"/><path class="cls-2" d="M0,3.39C2.08.6,5,0,8.29,0c9.2.1,18.41,0,27.62,0,5.68,0,7.08,1.09,8.31,6.48,1.15,5.07,2.21,10.16,3.3,15.25-3.61.76-7.27.22-10.91.3a74.25,74.25,0,0,1-2-8.1c-.33-2.4-1.46-2.9-3.63-2.87-7.55.1-15.09,0-22.64.07C5,11.22,2.09,10.6,0,7.78Z"/><path class="cls-3" d="M36.61,22.07c3.64-.08,7.3.46,10.91-.3L90,22c6.29,0,12.59.1,18.88.16v87.55c-17.72.15-35.45.4-53.17-.12q-1.22-5.25-2.45-10.49Q49.15,79.91,45,60.74,40.8,41.41,36.61,22.07Z"/><path class="cls-4" d="M53.29,99.06q1.23,5.25,2.45,10.49c-4.6,1.51-6.44,4.15-5.11,7.56s4.22,3.63,7.24,3.63h46.95c1.33,0,2.66.07,4,.11l.08,10.71-32.5-.07-1.47,0-.08.14-2.4-.35H70.05c-1.28,0-2.58-.31-3.81.33-3.88-.06-7.78.12-11.63-.23-8.78-.8-14.86-7-15.21-15.21C39,107.36,44.23,100.92,53.29,99.06Z"/><path class="cls-5" d="M153.42,131.92c3.35,2.07,6.93,3.76,9.15,7.34a16.41,16.41,0,1,1-22.37-5.13c1.21-.75,2.49-1.4,3.74-2.1A13.46,13.46,0,0,1,153.42,131.92Zm-4.84,21.3a5.62,5.62,0,0,0,5.57-5c.08-2.61-2.56-5.22-5.33-5.26a5.6,5.6,0,0,0-5.56,5C143.17,150.57,145.81,153.17,148.58,153.22Z"/><path class="cls-6" d="M70.05,131.34h2.39c.72.87,1.59.61,2.46.31l0-.1,1.47,0c-.18,2,1.74,1.58,2.69,2.11a16.43,16.43,0,1,1-24.19,13.27c.63-7.47,5.23-11.94,11.72-14.85C67.78,131.92,69.07,132.39,70.05,131.34Zm1.14,21.88a5.6,5.6,0,0,0,5.5-5.09c0-2.62-2.61-5.18-5.39-5.2A5.61,5.61,0,0,0,65.8,148C65.76,150.64,68.41,153.2,71.19,153.22Z"/><path class="cls-7" d="M153.42,131.92a13.46,13.46,0,0,0-9.48.11q-15.57-.06-31.12-.15c-1.31,0-2.62-.2-3.93-.31l-.08-10.71a3.18,3.18,0,0,1,1-.36c16.61,0,33.22-.1,49.83,0,4.23,0,6.45,2.34,6.35,5.87-.1,3.32-2.34,5.3-6.39,5.5C157.55,132,155.48,131.91,153.42,131.92Z"/><path class="cls-8" d="M70.05,131.34c-1,1-2.27.58-3.44.69a.35.35,0,0,1-.37-.36C67.47,131,68.77,131.35,70.05,131.34Z"/><path class="cls-8" d="M74.9,131.64c-.87.3-1.74.56-2.46-.31l2.4.35Z"/><polygon class="cls-9" points="74.9 131.64 74.83 131.68 74.92 131.54 74.9 131.64"/><path class="cls-10" d="M148.58,153.22c-2.77-.05-5.41-2.65-5.32-5.26a5.6,5.6,0,0,1,5.56-5c2.77,0,5.41,2.65,5.33,5.26A5.62,5.62,0,0,1,148.58,153.22Z"/><path class="cls-11" d="M71.19,153.22c-2.78,0-5.43-2.58-5.39-5.2a5.61,5.61,0,0,1,5.5-5.09c2.78,0,5.43,2.58,5.39,5.2A5.6,5.6,0,0,1,71.19,153.22Z"/></g></g></svg>