<svg xmlns="http://www.w3.org/2000/svg" viewBox="0 0 149.94 178.41"><defs><style>.cls-1{fill:#ff6700;}.cls-2{fill:#ff7d26;}.cls-3{fill:#03bbb9;}.cls-4{fill:#4ecdd1;}.cls-5{fill:#ff7f2a;}.cls-6{fill:#f9b287;}.cls-7{fill:#03bbbb;}.cls-8{fill:#ea9b6f;}.cls-9{fill:#fecda9;}.cls-10{fill:#4ececf;}.cls-11{fill:#3a3a3a;}.cls-12{fill:#4d4d4d;}</style></defs><g id="Layer_2" data-name="Layer 2"><g id="Layer_1-2" data-name="Layer 1"><path class="cls-1" d="M95.9,115h18.26c16.53,0,32,12.83,35,29a40.67,40.67,0,0,1,.73,7.94c0,6.61-.12,13.22,0,19.83.07,3.14-.92,5.38-3.88,6.61H122c0-6.56,0-13.12,0-19.68a5.26,5.26,0,0,0-5.35-5.4,5.52,5.52,0,0,0-5.09,5.58c0,6.5,0,13,0,19.5H75q0-17.74,0-35.49a24,24,0,0,0,4-.38c8.33-1.83,13.7-6.87,16.24-14.95C96.46,123.47,95.69,119.19,95.9,115Z"/><path class="cls-2" d="M75,142.92q0,17.75,0,35.49H38.39c0-6.56,0-13.12,0-19.68a5.27,5.27,0,0,0-5.35-5.4,5.52,5.52,0,0,0-5.09,5.58c0,6.5,0,13,0,19.5h-24c-3-1.39-4-3.76-3.89-7,.17-6.56,0-13.13.06-19.69a36.66,36.66,0,0,1,30.86-36.28A37.25,37.25,0,0,1,37,115c5.69,0,11.39,0,17.08,0,.13,3.47-.16,6.94.31,10.42C55.68,135,65.19,143.16,75,142.83Z"/><path class="cls-3" d="M90,0c1.58.67,3.31.62,5,1a43.68,43.68,0,0,1,33.43,35A51.62,51.62,0,0,1,129,46.35c-3.37-1.4-6.93-1-10.43-1.1a36.84,36.84,0,0,0-1.42-11.15A33.15,33.15,0,0,0,88.89,10.72c-4.64-.47-9.28-.06-13.91-.32V0Z"/><path class="cls-4" d="M75,0V10.4l-10.79.06a30.71,30.71,0,0,0-14.71,3.65C37.21,20.84,31.27,31.32,31.42,45.28c-3.51.07-7.06-.29-10.43,1.06C20.6,27.64,28.5,13.68,45,4.68A40.89,40.89,0,0,1,58.27.42c.36-.06.85.12,1-.42Z"/><path class="cls-1" d="M27.93,178.41c0-6.5,0-13,0-19.5A5.52,5.52,0,0,1,33,153.33a5.27,5.27,0,0,1,5.35,5.4c0,6.56,0,13.12,0,19.68Z"/><path class="cls-5" d="M111.56,178.41c0-6.5,0-13,0-19.5a5.52,5.52,0,0,1,5.09-5.58,5.26,5.26,0,0,1,5.35,5.4c0,6.56,0,13.12,0,19.68Z"/><path class="cls-6" d="M111.26,83.62A36.52,36.52,0,0,1,96.52,108a5,5,0,0,0-.69.76,7,7,0,0,0-.92.42A35,35,0,0,1,75,115q0-29.51,0-59c0-.81.09-1.62.13-2.43,4.65,4.41,10.19,6,16.54,5.76,6.61-.26,13.24-.06,19.86-.06C111.47,67.37,111.88,75.5,111.26,83.62Z"/><path class="cls-7" d="M111.26,83.62c.62-8.12.21-16.25.25-24.38q.06-7,.11-13.94l6.91,0c3.5.14,7.06-.3,10.43,1.1,5.13,2.87,7.29,7.28,7,13.11-.17,3.93,0,7.88,0,11.82a12.17,12.17,0,0,1-12.34,12.34C119.49,83.66,115.38,83.63,111.26,83.62Z"/><path class="cls-8" d="M75,115a35,35,0,0,0,19.94-5.83,7,7,0,0,1,.92-.42c0,2.08,0,4.16.07,6.24-.21,4.21.56,8.49-.73,12.61-2.54,8.08-7.91,13.12-16.24,14.95a24,24,0,0,1-4,.38V115Z"/><path class="cls-9" d="M75.11,53.54c0,.81-.13,1.62-.13,2.43q0,29.5,0,59h0a37.57,37.57,0,0,1-14.75-3.12c-2.14-.89-3.91-2.44-6.12-3.13a24.74,24.74,0,0,0-3.37-2.94,27.15,27.15,0,0,1-4.33-4.69c.64,0,1.27,0,1.91,0q9.64,0,19.3,0a5.27,5.27,0,0,0,4.32-1.84,4.89,4.89,0,0,0,.83-5.51,5.14,5.14,0,0,0-5-3.11l-27.3-.06a51.72,51.72,0,0,1-1.76-6.93c-.63-8.12-.21-16.25-.27-24.37,6.83,0,13.67-.14,20.5,0,6,.16,11.29-1.49,15.71-5.64l.45-.1Z"/><path class="cls-10" d="M38.43,59.24c.06,8.12-.36,16.25.27,24.37l-7.24,0c0-1.79,0-3.59-.06-5.39a5.22,5.22,0,0,0-10.43,0c0,1.34,0,2.67-.07,4A11.27,11.27,0,0,1,14.05,72c-.22-5-.14-10,0-15a11.63,11.63,0,0,1,5-9.35c.65-.48,1.34-.9,2-1.35,3.37-1.35,6.92-1,10.43-1.06h6.92Z"/><path class="cls-10" d="M20.9,82.29c0-1.33,0-2.66.07-4a5.22,5.22,0,0,1,10.43,0c.07,1.8.05,3.6.06,5.4-.21,5,1.67,6.94,6.57,6.94.81,0,1.62,0,2.43-.06l27.3.06a5.14,5.14,0,0,1,5,3.11,4.89,4.89,0,0,1-.83,5.51,5.27,5.27,0,0,1-4.32,1.84q-9.64,0-19.3,0c-.64,0-1.27,0-1.91,0-3,0-6,0-9,0C27.73,101,21,94.33,21,84.72,21,83.91,20.92,83.1,20.9,82.29Z"/><path class="cls-6" d="M54.1,108.74c2.21.69,4,2.24,6.12,3.13A37.57,37.57,0,0,0,75,115v27.84c-9.78.33-19.29-7.79-20.59-17.43-.47-3.48-.18-7-.31-10.42Z"/><path class="cls-11" d="M75,17.48c5.44.12,10.91-.67,16.29.6a25.91,25.91,0,0,1,20.3,25.65c0,.52,0,1.05.05,1.57q-.06,7-.11,13.94c-6.62,0-13.25-.2-19.86.06-6.35.25-11.89-1.35-16.54-5.76h0A.42.42,0,0,0,75,53.3Q75,35.39,75,17.48Z"/><path class="cls-12" d="M75,17.48q0,17.91,0,35.82l-.36.34c-4.42,4.15-9.67,5.8-15.71,5.64-6.83-.18-13.67,0-20.5,0l-.09-14A27.11,27.11,0,0,1,40.82,32.6C45.63,23,53.43,17.88,64.19,17.45,67.78,17.31,71.38,17.46,75,17.48Z"/><path class="cls-6" d="M74.64,53.64,75,53.3a.42.42,0,0,1,.09.24Z"/></g></g></svg>