<svg xmlns="http://www.w3.org/2000/svg" viewBox="0 0 192.55 192.34"><defs><style>.cls-1{fill:#ff7d26;}.cls-2{fill:#ff6700;}.cls-3{fill:#04c8c8;}.cls-4{fill:#fefcfc;}.cls-5{fill:#06c8c8;}.cls-6{fill:#01c7c7;}</style></defs><g id="Layer_2" data-name="Layer 2"><g id="Layer_1-2" data-name="Layer 1"><path class="cls-1" d="M158.47,80.16l-2.41,0c-2.22-.73-4.46-1.5-6.13-3.21-2.56-2.63-5-5.38-7.53-8.07a180.19,180.19,0,0,1-14.05-20.31C116.89,28.4,131,5.93,148.87,1.37A72.93,72.93,0,0,1,158.54,0q-.09,14.37-.17,28.75c-3.27.44-5.75,2-5.71,5.55s2.3,5.5,5.87,5.81Z"/><path class="cls-2" d="M158.29,80.18l2.42,0c2.21-.74,4.45-1.5,6.12-3.21,2.57-2.64,5-5.38,7.53-8.08a179.37,179.37,0,0,0,14.06-20.31c11.45-20.13-2.68-42.61-20.52-47.17A73.17,73.17,0,0,0,158.23,0q.08,14.39.16,28.75c3.28.44,5.75,2,5.72,5.55s-2.31,5.51-5.88,5.81Z"/><path class="cls-3" d="M192.34,144.21c-1.27.73-1.12,2.12-1.48,3.25a32.77,32.77,0,0,1-30.86,23c-6.24.08-12.49,0-18.73,0a23.28,23.28,0,0,0,0-11.13c6,0,12,0,18-.08,12.12-.12,21.65-9.38,21.79-21.15.16-12-9.18-21.58-21.51-21.73-14.12-.16-28.24-.1-42.36-.14a24.62,24.62,0,0,0,0-11.1c14,0,28-.17,42,0,16.15.16,28.3,9.91,32.3,25.61.15.58,0,1.27.79,1.52Z"/><path class="cls-2" d="M54.55,170.41c-3,11.72-10.75,18.69-22.2,21.87H27.1l0-54.66c11.1-.71,22.1,6.79,26.15,17.84.47,1.27.84,2.58,1.25,3.87A41.11,41.11,0,0,1,54.55,170.41Z"/><path class="cls-1" d="M27.14,137.62l0,54.66H21.84c-.65-1.13-1.92-1-2.92-1.37A27.37,27.37,0,0,1,1.43,173.42c-.35-1-.25-2.27-1.37-2.92V159.23C2.31,154,4.38,148.7,8.84,144.79,14.09,140.18,20.06,137.5,27.14,137.62Z"/><path class="cls-4" d="M.06,170.5c1.12.65,1,1.92,1.37,2.92a27.37,27.37,0,0,0,17.49,17.49c1,.35,2.27.24,2.92,1.37-6.58,0-13.16-.08-19.74.05-1.76,0-2.13-.34-2.1-2.1C.14,183.66.06,177.08.06,170.5Z"/><path class="cls-5" d="M142.4,68.85c2.51,2.69,5,5.44,7.53,8.07,1.67,1.71,3.91,2.48,6.13,3.21q-51.24,0-102.46,0c-5.66,0-10,2-12.51,7.18-4,8.44,2.06,17.49,11.85,17.63,10.13.16,20.27.06,30.4.08a23.19,23.19,0,0,0,0,11.2c-10.26,0-20.53.12-30.79,0-13.5-.14-24-10.61-24-23.76A23.43,23.43,0,0,1,52.28,69c28.16-.16,56.33,0,84.49-.06C138.65,68.92,140.53,68.87,142.4,68.85Z"/><path class="cls-6" d="M54.55,170.41a41.11,41.11,0,0,0,0-11.08l52.88-.06a23.65,23.65,0,0,0,0,11.19Z"/><path class="cls-2" d="M141.27,159.3a23.28,23.28,0,0,1,0,11.13c-3.47,7.24-8.52,12.19-17.2,11.89V147.43C132.75,147.12,137.8,152.07,141.27,159.3Z"/><path class="cls-2" d="M117.21,105.1a24.62,24.62,0,0,1,0,11.1c-3.47,7.17-8.54,12-17.1,11.89q0-17.41-.08-34.84C108.75,92.82,113.73,97.87,117.21,105.1Z"/><path class="cls-1" d="M100,93.25q0,17.41.08,34.84c-8.26-.15-13.44-4.64-16.72-11.83a23.19,23.19,0,0,1,0-11.2C86.61,97.89,91.6,93.17,100,93.25Z"/><path class="cls-1" d="M124.07,147.43v34.89c-8.3-.1-13.4-4.69-16.66-11.86a23.65,23.65,0,0,1,0-11.19C110.68,152.11,115.78,147.52,124.07,147.43Z"/></g></g></svg>