<svg xmlns="http://www.w3.org/2000/svg" viewBox="0 0 172.51 172.51"><defs><style>.cls-1{fill:#35beba;}.cls-2{fill:#34c8c9;}.cls-3{fill:#ff8533;}.cls-4{fill:#f85a22;}</style></defs><g id="Layer_2" data-name="Layer 2"><g id="Layer_1-2" data-name="Layer 1"><path class="cls-1" d="M86.26,0h5.39c.14.32.44.28.71.3a70.49,70.49,0,0,1,38,15.16c21.83,17,31.76,47.36,24.16,73.95-1.15,4-2.75,7.91-4.27,11.82-1.91,3.22-3.56,6.6-5.75,9.65q-19.29,26.93-52.22,30.4l-6,.18q0-10.05,0-20.1a67,67,0,0,0,8.71-.81,50.54,50.54,0,0,0,16.66-93.49,51.76,51.76,0,0,0-25.37-6.91Q86.26,10.09,86.26,0Z"/><path class="cls-2" d="M86.27,121.36q0,10,0,20.1l-6-.18c-1.51-.18-3-.3-4.51-.55Q44,135.38,26.38,108.35c-1.49-2.3-2.75-4.74-4.12-7.12-.14-.42-.24-.86-.42-1.26a70.6,70.6,0,0,1-5.05-42.59C21.89,29.46,45.06,6.3,73,1.26,75.38.83,77.85.79,80.19,0h6.07q0,10.08,0,20.15l0,.14a36.65,36.65,0,0,0-8,.59c-23.28,3.58-41.57,24-42.41,47.43-.57,15.84,5,29.28,16.7,39.94a48.72,48.72,0,0,0,33.74,13Z"/><path class="cls-3" d="M0,125.68c.91-3.06,3-5.29,5.19-7.47,5.73-5.61,11.39-11.31,17.07-17,1.37,2.38,2.63,4.82,4.12,7.12q17.55,27,49.36,32.38c1.49.25,3,.37,4.51.55-8.84,8.86-17.71,17.7-26.51,26.61-2.09,2.11-4.29,3.91-7.24,4.62h-4c-.15-.15-.27-.37-.45-.43-4-1.3-6.11-4.24-7.23-8.16C33,157.73,31,151.6,29.23,145.42a2.87,2.87,0,0,0-2.2-2.17c-6.39-1.88-12.75-3.85-19.13-5.76a11.65,11.65,0,0,1-5.18-3c-1.41-1.45-2-3.32-2.72-5.13Z"/><path class="cls-4" d="M150.24,101.23Q160,111,169.73,120.66c1.42,1.41,2,3.27,2.78,5v4c-.11.12-.27.22-.31.35-1.16,4.13-4,6.42-8,7.59-6.39,1.86-12.74,3.88-19.12,5.77a2.07,2.07,0,0,0-1.64,1.62c-2,6.55-4,13.07-5.94,19.6a11.48,11.48,0,0,1-3.14,5.28,14.83,14.83,0,0,1-5,2.58h-4c-1.57-.92-3.35-1.44-4.68-2.78q-14.18-14.25-28.39-28.45,33-3.43,52.22-30.4C146.68,107.83,148.33,104.45,150.24,101.23Z"/><path class="cls-2" d="M86.24,81.22l-4.11,2.9C79.48,86,77,85.84,74.75,83.53q-5.22-5.48-10.35-11a5.13,5.13,0,0,1,0-7.26,5.06,5.06,0,0,1,7.35.33c2.27,2.33,4.49,4.71,6.67,7.11.66.72,1.14.82,2,.19,1.9-1.47,3.88-2.84,5.83-4.24q.06,6.14.11,12.29A1.59,1.59,0,0,1,86.24,81.22Z"/><path class="cls-1" d="M86.3,80.92q0-6.15-.11-12.29c0-.08,0-.17.08-.25l15-11.06a5,5,0,0,1,6-.44,4.77,4.77,0,0,1,2.32,5A4.42,4.42,0,0,1,107.78,65Q97.06,73,86.3,80.92Z"/></g></g></svg>