<svg xmlns="http://www.w3.org/2000/svg" viewBox="0 0 174.11 174.11"><defs><style>.cls-1{fill:#ff7d26;}.cls-2{fill:#f85a22;}.cls-3{fill:#b95f4e;}.cls-4{fill:#d58779;}.cls-5{fill:#49ccce;}.cls-6{fill:#35beba;}.cls-7{fill:#febeab;}.cls-8{fill:#f69581;}.cls-9{fill:#7cd3f3;}</style></defs><g id="Layer_2" data-name="Layer 2"><g id="Layer_1-2" data-name="Layer 1"><path class="cls-1" d="M.05,160.47a29.92,29.92,0,0,1,3.83-8.92c4.92-8,12.09-12.29,21.22-13.62l2.84.11q0,18,0,36c-8.73,0-17.46,0-26.18.05-1.46,0-1.79-.28-1.75-1.75C.14,168.4.05,164.43.05,160.47Z"/><path class="cls-2" d="M27.93,174.06q0-18,0-36l-.06-.08,2.94-.05c15.75,2.58,25.53,14.67,24.91,30.61-.09,2.35-1.37,3.89-2.65,5.54Z"/><path class="cls-2" d="M174.11,63.91c-1.61,2.16-3.72,2.86-6.43,2.78-5.3-.15-10.61,0-15.91,0l-5.51-.22q0-17.25,0-34.48l.07-.18c1.16.24,5.3.45,6.32.65,18.28,3.66,21.46,22,21.44,21.89Z"/><path class="cls-3" d="M162.63,12.92c1.67,8.28-4.6,17-13,18.44a5.36,5.36,0,0,1-3.32.5q0-15.93-.1-31.86C147.37,0,160.17,0,162.63,12.92Z"/><path class="cls-4" d="M146.24,0q0,15.93.1,31.86l-.06.17-3.44-.11c-2.89-1.66-6.12-2.75-8.4-5.45a16,16,0,0,1,5.19-24.94A28.63,28.63,0,0,1,146.24,0Z"/><path class="cls-5" d="M87.09,154.36c-19,0-35-7.07-48.36-20.48a19.1,19.1,0,0,0,4.94-9.35c7.11,7.08,14.64,13.49,25.51,16.55a86.7,86.7,0,0,1-8.74-26.67c-.26-1.5-1.4-1.55-2.59-1.54l-16.6.1c-3.56-4-7.5-7.28-13.34-6.79-1.86-.47-3.57.52-5.38.55-11-39.2,11.58-77.22,51-85.95a65.1,65.1,0,0,1,16.13-1.44c-2,.22-2.85,1.18-2.65,3.31.21,2.34.09,4.71.12,7.07-3.68.35-5.71,3-7.53,5.71-4.76,7-6.78,15.11-8.75,23.2-.49,2,.44,2.56,2.32,2.53,4.62-.08,9.24,0,13.86,0,0,3.37,0,6.75.08,10.12-5.2,0-10.4.12-15.61,0-2,0-2.71.6-2.84,2.67a202.18,202.18,0,0,0,0,26.05c.13,2.06.77,2.73,2.81,2.69,5.2-.1,10.4,0,15.61,0v10.1c-4.73,0-9.47.06-14.2,0-1.49,0-2.46.31-2,2.09,2,8.56,4.11,17.08,9.38,24.37,1.73,2.38,3.59,4.69,6.89,4.92Q87.11,149.31,87.09,154.36Zm-42-51.69c3.39,0,6.79-.13,10.17,0,2.41.13,3.55-.42,3.26-3.13a115.42,115.42,0,0,1,0-25.34c.25-2.19-.49-3-2.77-2.95q-10.52.18-21,0c-2.09,0-3,.7-3.45,2.73a60.8,60.8,0,0,0,.14,26.51,2.43,2.43,0,0,0,2.84,2.17C37.89,102.6,41.51,102.67,45.13,102.67ZM36,61.13c7.79,0,14.89,0,22,0,1.72,0,2.29-.79,2.58-2.4,1.45-8.12,3.58-16,7.38-23.44.27-.54.92-1.2.26-1.81s-1.29-.21-1.91,0A57.29,57.29,0,0,0,36,61.13Z"/><path class="cls-6" d="M87.14,71.27l-.08-10.12L87,61c4.63,0,9.25,0,13.87.12,2.13.07,3-.74,2.49-2.77-1.89-8.13-4-16.21-8.9-23.16-1.77-2.52-3.65-5.28-7.34-5.33l0-.16c0-2.36.09-4.73-.12-7.07-.2-2.13.67-3.09,2.65-3.31a66.81,66.81,0,0,1,39.8,14.85A26,26,0,0,1,131.43,36,57.23,57.23,0,0,0,124,43c-5.44-4.15-11-8.18-17.79-9.78l-.42-.25.25.42a22.53,22.53,0,0,0,1,2.84,80.18,80.18,0,0,1,6.58,20.83c.53,3,1.55,4.8,4.94,4,.35,3.29,1.72,5.57,5.46,5.55l22.31-.12,5.51.22a67.81,67.81,0,0,1-51.89,86.72,45.36,45.36,0,0,1-12.79.9q0-5.06,0-10.12l-.07-.11c3.67-.08,5.59-2.78,7.35-5.32,4.91-7.08,7.09-15.25,8.93-23.52.37-1.7-.23-2.48-2.09-2.44-4.74.09-9.48.06-14.21.07l.07-.1v-10.1l-.07-.1c5.3,0,10.6,0,15.9.07,1.57,0,2.4-.29,2.55-2.18a153.64,153.64,0,0,0,0-27c-.18-1.85-.93-2.22-2.53-2.2-5.3.06-10.6,0-15.9,0Zm41.82.1c-3.62,0-7.25.07-10.87,0-2,0-2.46.54-2.26,2.57a137.61,137.61,0,0,1,0,26.07c-.21,2.25.35,2.74,2.42,2.72q10.7-.12,21.39,0c2,0,2.8-.66,3.23-2.56a61.43,61.43,0,0,0,.16-25.86c-.44-2.24-1.31-3-3.57-3C136,71.48,132.47,71.37,129,71.37Zm-23.82,70c15-5.58,25.75-14.6,33.05-28.52-7.73,0-14.83,0-21.93,0-1.46,0-1.9.64-2.16,2C112.28,123.77,109.84,132.53,105.14,141.39Z"/><path class="cls-1" d="M124,43a57.23,57.23,0,0,1,7.45-7,42.13,42.13,0,0,1,11.41-4.12l3.44.11q0,17.25,0,34.49L124,66.64c-3.74,0-5.11-2.26-5.46-5.55C118.74,54.59,120.2,48.45,124,43Z"/><path class="cls-7" d="M22.53,106.73c1.81,0,3.52-1,5.38-.55l0,31.78.06.08-2.84-.11c-6.47-2.07-11.28-5.67-12.89-12.78-1.81-8,3.54-15,8.51-17.5Z"/><path class="cls-8" d="M27.88,138l0-31.78c5.84-.49,9.78,2.78,13.34,6.79a19.9,19.9,0,0,1,2.42,11.56,19.1,19.1,0,0,1-4.94,9.35,28.07,28.07,0,0,1-7.92,4Z"/><path class="cls-9" d="M106,33.41l-.25-.42.42.25Z"/></g></g></svg>