<svg xmlns="http://www.w3.org/2000/svg" xmlns:xlink="http://www.w3.org/1999/xlink" viewBox="0 0 151.57 151.63"><defs><style>.cls-1{fill:url(#linear-gradient);}.cls-2{fill:url(#linear-gradient-2);}.cls-3{fill:#35beba;}</style><linearGradient id="linear-gradient" x1="0.03" y1="75.83" x2="151.57" y2="75.83" gradientUnits="userSpaceOnUse"><stop offset="0" stop-color="#ff8300"/><stop offset="0.5" stop-color="#ff8300"/><stop offset="0.5" stop-color="#f85a22"/><stop offset="1" stop-color="#f85a22"/></linearGradient><linearGradient id="linear-gradient-2" x1="35.83" y1="75.88" x2="115.75" y2="75.88" xlink:href="#linear-gradient"/></defs><g id="Layer_2" data-name="Layer 2"><g id="Layer_1-2" data-name="Layer 1"><path class="cls-1" d="M129.22,22.26C102.43-4.29,66.15-4.17,44.2,7.62c4.3,4.3,8.58,8.6,12.91,12.85a2,2,0,0,0,1.54.24c3.42-.68,6.81-1.64,10.26-2.12a55,55,0,0,1,30.31,4.52,57.84,57.84,0,0,1,34,47.14,57.82,57.82,0,0,1-21.18,50.37,57.54,57.54,0,0,1-59.85,7.8A57.87,57.87,0,0,1,18.33,81.18,55.83,55.83,0,0,1,20.7,58.83a1.74,1.74,0,0,0-.5-2.06c-2.56-2.46-5-5-7.55-7.52-1.7-1.7-3.38-3.41-5.1-5.16-14.78,29.14-8.1,69,23.07,92.39,32.1,24.09,76.42,18.94,102.87-11.75C159.12,95,157.31,50.1,129.22,22.26Z"/><path class="cls-2" d="M53,108.51c12.27,8.35,25.52,9.73,39.06,3.67,13.12-5.87,20.91-16.26,23.19-30.52a38,38,0,0,0-7-29A39.1,39.1,0,0,0,81,36.2a37.44,37.44,0,0,0-18.51,2.14c0,1.41-.05,2.79,0,4.16a2.79,2.79,0,0,0,.58,1.7c3,3.08,6,6.1,9.1,9.1a1.94,1.94,0,0,0,1.4.48A22.17,22.17,0,1,1,53.75,73.63,2.34,2.34,0,0,0,53.11,72c-2.15-2.24-4.56-4.26-6.52-6.65a7.42,7.42,0,0,0-7.32-2.91c-.75.1-1.09.29-1.33,1a38.19,38.19,0,0,0-1.33,20.13A38.59,38.59,0,0,0,53,108.51Z"/><path class="cls-3" d="M18.06,17.77c0-4.36-.1-8.54.05-12.72A6.88,6.88,0,0,1,19.4,1.43,4,4,0,0,1,24.87.77a10.57,10.57,0,0,1,1.56,1.35c8.4,8.48,16.78,17,25.2,25.44a6.35,6.35,0,0,1,2,4.88q-.12,6.8,0,13.61a3.45,3.45,0,0,0,.91,2.15c7.8,7.88,15.66,15.72,23.5,23.57a12.05,12.05,0,0,1,1.46,1.66,4.4,4.4,0,0,1-6.08,6.07A12.05,12.05,0,0,1,71.75,78Q60,66.33,48.32,54.6a3.08,3.08,0,0,0-2.44-1c-4.63.06-9.27,0-13.91,0a5.4,5.4,0,0,1-4.1-1.67Q14.81,38.85,1.72,25.78C.24,24.3-.49,22.59.36,20.56S3,17.75,5.13,17.77C9.37,17.8,13.6,17.77,18.06,17.77Z"/></g></g></svg>