<svg xmlns="http://www.w3.org/2000/svg" width="112.44" height="133.789" viewBox="0 0 112.44 133.789"><path d="M647.075,660.036q6.848.006,13.7.012c12.39.022,23.957,9.619,26.257,21.776a30.522,30.522,0,0,1,.55,5.947c-.037,4.957-.09,9.916.022,14.869.052,2.358-.689,4.04-2.909,4.963h-18.03c0-4.919.01-9.839,0-14.758a3.95,3.95,0,0,0-4.015-4.055,4.136,4.136,0,0,0-3.814,4.186c-.021,4.876-.007,9.752-.007,14.628H631.386q0-13.307,0-26.613a19.311,19.311,0,0,0,2.972-.285A15.5,15.5,0,0,0,646.527,669.5C647.5,666.4,646.919,663.192,647.075,660.036Z" transform="translate(-575.163 -573.816)" fill="#ff6700"/><path d="M612.63,680.992q0,13.307,0,26.613H585.2c0-4.92.008-9.84,0-14.76a3.953,3.953,0,0,0-4.013-4.054,4.143,4.143,0,0,0-3.817,4.185c-.019,4.876-.006,9.752-.006,14.629h-18.03c-2.254-1.046-2.976-2.826-2.912-5.263.127-4.917.025-9.84.04-14.761a27.438,27.438,0,0,1,27.7-27.543c4.267.022,8.534,0,12.8,0,.1,2.6-.121,5.2.232,7.811.975,7.228,8.113,13.319,15.446,13.067Z" transform="translate(-556.411 -573.816)" fill="#ff7d26"/><path d="M642.623,545.057a20.71,20.71,0,0,0,3.719.742,32.758,32.758,0,0,1,25.068,26.233,38.626,38.626,0,0,1,.457,7.782c-2.524-1.051-5.194-.718-7.818-.826a27.98,27.98,0,0,0-1.063-8.36,24.881,24.881,0,0,0-21.165-17.535c-3.478-.35-6.957-.044-10.429-.24l0-7.8Z" transform="translate(-575.164 -545.057)" fill="#03bbb9"/><path d="M617.88,545.057q0,3.9,0,7.8c-2.7.016-5.4.023-8.093.048a23.037,23.037,0,0,0-11.027,2.735c-9.2,5.05-13.658,12.9-13.549,23.378-2.628.048-5.287-.224-7.818.79-.292-14.024,5.635-24.491,17.965-31.237a30.771,30.771,0,0,1,9.991-3.2c.269-.043.638.1.769-.311Z" transform="translate(-561.658 -545.057)" fill="#4ecdd1"/><path d="M584.342,717.2c0-4.876-.013-9.753.006-14.629a4.143,4.143,0,0,1,3.817-4.185,3.953,3.953,0,0,1,4.013,4.054c.011,4.92,0,9.84,0,14.76Z" transform="translate(-563.396 -583.407)" fill="#ff6700"/><path d="M667.973,717.2c0-4.876-.014-9.752.007-14.628a4.136,4.136,0,0,1,3.814-4.186,3.95,3.95,0,0,1,4.015,4.055c.014,4.919,0,9.839,0,14.758Z" transform="translate(-584.314 -583.407)" fill="#ff7f2a"/><path d="M658.6,621.158a27.426,27.426,0,0,1-11.055,18.264,3.989,3.989,0,0,0-.52.565,5.768,5.768,0,0,0-.689.319,26.3,26.3,0,0,1-14.95,4.373q0-22.13.005-44.259c0-.607.064-1.213.1-1.819,3.486,3.306,7.638,4.5,12.405,4.314,4.955-.2,9.925-.043,14.888-.042C658.753,608.968,659.06,615.067,658.6,621.158Z" transform="translate(-575.164 -558.45)" fill="#f9b287"/><path d="M667.676,619.083c.461-6.091.154-12.19.182-18.285q.042-5.228.083-10.456l5.184-.036c2.624.109,5.294-.225,7.818.826,3.85,2.154,5.467,5.459,5.273,9.829-.13,2.949,0,5.909-.029,8.864a9.135,9.135,0,0,1-9.256,9.259C673.847,619.107,670.761,619.085,667.676,619.083Z" transform="translate(-584.241 -556.375)" fill="#03bbbb"/><path d="M631.384,658.484a26.3,26.3,0,0,0,14.95-4.373,5.759,5.759,0,0,1,.689-.319q.026,2.342.052,4.682c-.157,3.156.424,6.366-.549,9.46a15.5,15.5,0,0,1-12.173,11.211,19.311,19.311,0,0,1-2.972.285l0-.073q0-10.436,0-20.872Z" transform="translate(-575.163 -572.254)" fill="#ea9b6f"/><path d="M622.327,598.6c-.034.607-.1,1.213-.1,1.819q-.008,22.13-.005,44.259h0a28.187,28.187,0,0,1-11.064-2.343c-1.609-.664-2.932-1.826-4.592-2.349a18.668,18.668,0,0,0-2.523-2.2,20.558,20.558,0,0,1-3.247-3.518c.477-.014.955-.04,1.432-.04q7.237-.006,14.475,0a3.977,3.977,0,0,0,3.238-1.379,3.667,3.667,0,0,0,.618-4.132,3.845,3.845,0,0,0-3.749-2.334l-20.47-.044a38.311,38.311,0,0,1-1.318-5.2c-.472-6.087-.161-12.183-.206-18.275,5.126,0,10.255-.1,15.377.031a15.8,15.8,0,0,0,11.781-4.228l.338-.076Z" transform="translate(-566.003 -558.449)" fill="#fecda9"/><path d="M588.706,600.8c.045,6.092-.266,12.188.206,18.275l-5.427.034c-.013-1.348,0-2.7-.045-4.042a3.913,3.913,0,0,0-7.824.023c-.039,1-.038,2-.055,3a8.448,8.448,0,0,1-5.132-7.712c-.167-3.736-.109-7.487-.016-11.228a8.7,8.7,0,0,1,3.712-7.008c.485-.361,1-.678,1.506-1.015,2.531-1.013,5.191-.742,7.818-.79l5.191,0Q588.673,595.569,588.706,600.8Z" transform="translate(-559.891 -556.382)" fill="#4ececf"/><path d="M577.309,625.07c.017-1,.016-2,.055-3a3.913,3.913,0,0,1,7.824-.022c.049,1.346.032,2.694.045,4.042-.162,3.716,1.249,5.21,4.921,5.207.607,0,1.215-.028,1.823-.043l20.47.044a3.845,3.845,0,0,1,3.749,2.334,3.667,3.667,0,0,1-.618,4.132,3.977,3.977,0,0,1-3.238,1.379q-7.238-.02-14.475,0c-.477,0-.955.026-1.432.041-2.256-.014-4.511-.036-6.766-.041-7.236-.019-12.29-5.047-12.311-12.252C577.354,626.282,577.326,625.676,577.309,625.07Z" transform="translate(-561.638 -563.361)" fill="#4ececf"/><path d="M610.5,653.792c1.66.523,2.984,1.685,4.592,2.349a28.188,28.188,0,0,0,11.064,2.343q0,10.436,0,20.872c-7.333.251-14.471-5.839-15.446-13.067-.352-2.608-.13-5.209-.232-7.811Q610.489,656.135,610.5,653.792Z" transform="translate(-569.934 -572.254)" fill="#f9b287"/><path d="M631.392,562.5c4.076.089,8.183-.5,12.218.448a19.426,19.426,0,0,1,15.216,19.238c0,.391.026.781.04,1.173q-.042,5.228-.083,10.456c-4.964,0-9.933-.154-14.888.042-4.767.188-8.919-1.008-12.405-4.314l-.013,0a.314.314,0,0,0-.073-.18Q631.4,575.935,631.392,562.5Z" transform="translate(-575.165 -549.396)" fill="#3a3a3a"/><path d="M622.226,562.516q.007,13.43.012,26.861l-.265.256a15.8,15.8,0,0,1-11.781,4.228c-5.122-.136-10.251-.031-15.377-.031q-.033-5.235-.066-10.469a20.393,20.393,0,0,1,1.859-9.509c3.605-7.216,9.459-11.04,17.525-11.355C616.827,562.39,619.528,562.5,622.226,562.516Z" transform="translate(-566 -549.408)" fill="#4d4d4d"/><path d="M631.054,598.615l.265-.256a.313.313,0,0,1,.073.18Z" transform="translate(-575.081 -558.389)" fill="#f9b287"/></svg>