<svg xmlns="http://www.w3.org/2000/svg" width="152" height="152" viewBox="0 0 152 152"><g transform="translate(1 1)"><g fill="#02bbbb" stroke="#02bbbb" stroke-linejoin="round" stroke-width="1"><circle cx="75" cy="75" r="75" stroke="none"/><circle cx="75" cy="75" r="75.5" fill="none"/></g><path d="M57.193,1a10.6,10.6,0,0,0,3.6,3.057l1.079.36h2.7l1.978-.9L69.241,1,92.707,24.466l-1.978,1.978-.9,1.259-.539,1.439v2.7l.36,1.079.9,1.439,2.158,2.338-7.822,7.822h-.36l-3.776-3.6-3.686,3.866,3.776,3.776L36.694,92.707l-2.338-2.158-1.439-.9-1.079-.36h-2.7l-1.978.9-2.7,2.517L1,69.241l1.978-1.978L3.877,66l.539-1.439v-2.7L3.7,60.07,1,57.193l.18-.45h.36v-.36H1.9v-.36h.36v-.36q.486.2.36-.27l1.259-1.079q-.126-.4.27-.27l1.439-1.618h.27q-.2-.486.27-.36l.629-.629v-.27h.27l.629-.629q-.126-.4.27-.27l1.528-1.528v-.27h.36q-.2-.486.27-.36a.6.6,0,0,0,.45-.719h.27l.629-.629q-.126-.4.27-.27a.6.6,0,0,0,.45-.719.6.6,0,0,0,.719-.45v-.27h.36q-.2-.486.27-.36l.27-.539h.36q-.2-.486.27-.36l.629-.629V42.9l.539-.27q-.126-.4.27-.27l1.618-1.8.45-.27q-.126-.4.27-.27l.27-.539h.27l.809-.809.27-.45,1.349-1.169.45-.629h.27q-.2-.486.27-.36L23.3,34.9v-.27q.486.2.36-.27l.539-.27q-.2-.486.27-.36l.27-.539q.486.2.36-.27a.6.6,0,0,1,.719-.45q-.2-.486.27-.36l.27-.539.539-.27q-.126-.4.27-.27l.27-.539a.6.6,0,0,0,.719-.45q-.126-.4.27-.27l.27-.539q.486.2.36-.27a.6.6,0,0,1,.719-.45q-.2-.486.27-.36l.27-.539h.27l.629-.629q-.126-.4.27-.27l2.158-2.338,3.506-3.327.27-.45L41.1,17.094q-.126-.468.36-.27v-.36h.27l3.6-3.417,3.776,3.6,3.686-3.866L49.191,9l5.125-5.3h.27v-.36h.36v-.36h.36q-.2-.486.27-.36Zm-.45,15.824L52.967,20.78,57.1,24.736l3.776-3.776Zm8.092,8.092-3.776,3.956,4.136,3.776,3.6-3.776Zm-10.07,7.732-5.934,5.934L50.81,40.2l1.8-1.8,4.675,4.675,2.158-2.158-4.675-4.675,1.8-1.978-1.439-1.618Zm18.162.18-3.956,3.956,4.136,3.956,3.776-3.6ZM47.753,39.661l-5.215,5.215,6.473,6.294,5.395-5.215-1.618-1.8-3.237,3.237-.719-.539,2.517-2.7-1.439-1.8-2.7,2.517-.719-.36,2.877-3.057V41.1l-1.259-1.439Zm-6.294,6.294-2.338,2.338.18,4.136h0L37.143,50.27l-2.158,2.158v.36h.36l1.079,1.259q-.18.36.36.18l1.079,1.259h.18v.36h.36v.36h.36v.36h.36v.36q.539-.18.36.36l1.079.9h.18a.705.705,0,0,0,.539.719l2.158-1.978L42,55.3V54.226q.539-.18.719.18H43.8l.18.18h1.079l.18.18h.36l2.517-2.517-.719-.18-.18-.18H46.134l-.18-.18H44.876l-.18-.18H43.617l-.18-.18H42.358l-.539-.18V49.011l-.18-.18v-2.7Zm-7.732,8.811-1.618.539L30.85,56.384h-.36v.36l-.719.719-.719,1.618v2.338l.719,1.439,1.439,1.259,1.618.719h1.8q0-.36.719-.18l1.618-.9.9-.9.9-1.439.18-.539V58.9q-.539-.18-.719.18H36.244V60.52l-.18.36-.719.719-.9.36-1.259-.36a2.921,2.921,0,0,1-1.259-1.439v-.9l.36-.719,1.079-.9,1.439-.18v-2.7ZM25.815,61.6l-2.158,2.158v.36l6.294,6.114,2.338-2.158ZM22.4,65.015l-5.934,5.934,1.618,1.618h.36l1.618-1.618,4.675,4.5,2.158-1.978-4.5-4.675,1.618-1.8v-.36Z" transform="translate(28 28)" fill="#fff"/></g></svg>