<svg xmlns="http://www.w3.org/2000/svg" xmlns:xlink="http://www.w3.org/1999/xlink" viewBox="0 0 180.17 116.19"><defs><style>.cls-1{fill:url(#linear-gradient);}.cls-2{fill:url(#linear-gradient-2);}</style><linearGradient id="linear-gradient" y1="58.1" x2="180.17" y2="58.1" gradientUnits="userSpaceOnUse"><stop offset="0" stop-color="#ff8300"/><stop offset="0.5" stop-color="#ff8300"/><stop offset="0.5" stop-color="#f85a22"/><stop offset="1" stop-color="#f85a22"/></linearGradient><linearGradient id="linear-gradient-2" x1="61.16" y1="58.24" x2="119.05" y2="58.24" gradientUnits="userSpaceOnUse"><stop offset="0" stop-color="#34c8c9"/><stop offset="0.5" stop-color="#34c8c9"/><stop offset="0.5" stop-color="#35beba"/><stop offset="1" stop-color="#35beba"/></linearGradient></defs><g id="Layer_2" data-name="Layer 2"><g id="Layer_1-2" data-name="Layer 1"><path class="cls-1" d="M177.33,51.4c-3.21-3.73-6.43-7.47-9.82-11C154.24,26.48,139.36,14.76,121.58,7.1A84.36,84.36,0,0,0,90,0c-4.24.48-8.52.75-12.72,1.48C63,4,50.3,10.19,38.43,18.29,24.77,27.61,13.05,39,2.56,51.76c-3.4,4.12-3.49,9.09.18,13.1,6.32,6.91,12.54,14,19.39,20.33,12.81,11.91,27.22,21.43,44,27A73.36,73.36,0,0,0,103,115c14.2-2.59,26.88-8.72,38.69-16.77,13.57-9.24,25.22-20.57,35.67-33.18C181.08,60.6,181.13,55.81,177.33,51.4ZM90,100.17A41.94,41.94,0,1,1,132,58.25,41.9,41.9,0,0,1,90,100.17Z"/><path class="cls-2" d="M90.11,29.29a28.95,28.95,0,1,0,28.94,29A28.93,28.93,0,0,0,90.11,29.29ZM87.89,49a1.09,1.09,0,0,1-.73.76c-3.61.61-5.41,2.92-5.93,6.39H71.92c-.35-8.41,7.37-16.1,16-15.86C87.93,43.14,88,46,87.89,49Z"/></g></g></svg>